<?xml version="1.0" encoding="utf-8"?>
<!-- Generator: Adobe Illustrator 26.1.0, SVG Export Plug-In . SVG Version: 6.00 Build 0)  -->
<svg version="1.1" id="Layer_1" xmlns="http://www.w3.org/2000/svg" xmlns:xlink="http://www.w3.org/1999/xlink" x="0px" y="0px"
	 viewBox="0 0 100 100" style="enable-background:new 0 0 100 100;" xml:space="preserve">
<style type="text/css">
	.st0{fill:#F20C32;}
	.st1{fill:#DC0A2D;}
	.st2{fill:#C60928;}
	.st3{fill:#FF0D35;}
	.st4{fill:#89061C;}
	.st5{fill:#FF002A;}
	.st6{fill:#FFE643;}
	.st7{fill:#58BF67;}
	.st8{fill:#393939;}
	.st9{fill:#232323;}
	.st10{fill:#196A9E;}
	.st11{fill:#28AAFD;}
	.st12{fill:#096CA0;}
	.st13{fill:#DDDDDD;}
	.st14{fill:#A1DAFE;}
	.st15{fill:#DEDEDE;}
	.st16{fill:#FA002B;}
	.st17{fill:#A6A6A6;}
	.st18{fill:#51AE5F;}
	.st19{fill:#001916;}
	.st20{fill:#036593;}
	.st21{fill:#4C0410;}
	.st22{fill:#290208;}
	.st23{fill:#FFE01B;}
	.st24{fill:#002420;}
	.st25{fill:#002E29;}
	.st26{fill:#D6D6D6;}
	.st27{fill:#26A3F0;}
	.st28{fill:#00312B;}
	.st29{fill:#C60E2D;}
</style>
<g>
	<polygon class="st0" points="96,94 4,94 4,6 52,6 52,18 72,18 72,22 76,22 76,26 96,26 	"/>
	<polygon class="st1" points="48,94 4,94 4,26 40,26 40,30 44,30 44,78 48,78 	"/>
	<polygon class="st2" points="48,94 4,94 4,30 8,30 8,74 12,74 12,78 16,78 16,82 28,82 28,90 48,90 	"/>
	<rect x="48" y="18" class="st3" width="4" height="76"/>
	<g>
		<polygon class="st1" points="92,30 76,30 76,26 76,22 72,22 68,22 68,26 64,26 64,30 60,30 60,78 68,78 68,82 72,82 72,86 76,86 
			76,90 96,90 96,66 92,66 		"/>
	</g>
	<g>
		<g>
			<rect x="28" y="22" class="st4" width="4" height="4"/>
			<rect x="32" y="18" class="st4" width="16" height="4"/>
			<rect x="4" y="26" class="st4" width="24" height="4"/>
		</g>
		<g>
			<rect x="24" y="10" class="st5" width="4" height="4"/>
			<rect x="28" y="10" class="st6" width="4" height="4"/>
			<rect x="32" y="10" class="st7" width="4" height="4"/>
		</g>
		<rect x="60" y="34" class="st8" width="32" height="12"/>
		<polygon class="st9" points="80,42 80,46 64,46 64,42 68,42 68,38 72,38 72,34 88,34 88,38 84,38 84,42 		"/>
		<g>
			<rect x="8" y="10" class="st10" width="4" height="4"/>
			<rect x="12" y="10" class="st11" width="4" height="4"/>
			<rect x="16" y="10" class="st12" width="4" height="4"/>
			<rect x="8" y="14" class="st11" width="4" height="4"/>
			<rect x="12" y="14" class="st13" width="4" height="4"/>
			<rect x="16" y="14" class="st14" width="4" height="4"/>
			<rect x="8" y="18" class="st10" width="4" height="4"/>
			<rect x="12" y="18" class="st14" width="4" height="4"/>
			<rect x="16" y="18" class="st10" width="4" height="4"/>
		</g>
		<g>
			<polygon points="72,18 52,18 52,6 4,6 4,2 56,2 56,14 72,14 			"/>
			<rect x="96" y="26" width="4" height="68"/>
			<rect y="6" width="4" height="88"/>
			<rect x="72" y="18" width="4" height="4"/>
			<rect x="76" y="22" width="20" height="4"/>
			<rect x="4" y="94" width="92" height="4"/>
		</g>
		<g>
			<polygon class="st15" points="44,70 12,70 12,66 8,66 8,34 44,34 			"/>
			<rect x="16" y="62" class="st16" width="4" height="4"/>
			<rect x="32" y="62" class="st17" width="8" height="4"/>
			<g>
				<rect x="12" y="38" class="st8" width="28" height="20"/>
				<polygon class="st9" points="28,38 40,38 40,42 36,42 36,46 32,46 32,50 28,50 28,54 24,54 24,58 12,58 12,54 16,54 16,50 
					20,50 20,46 24,46 24,42 28,42 				"/>
			</g>
		</g>
		<rect x="16" y="18" class="st10" width="4" height="4"/>
		<rect x="16" y="74" class="st16" width="4" height="4"/>
		<rect x="16" y="82" class="st18" width="12" height="8"/>
		<rect x="8" y="78" class="st19" width="4" height="4"/>
		<rect x="24" y="74" class="st20" width="4" height="4"/>
		<rect x="48" y="82" class="st21" width="4" height="4"/>
		<rect x="52" y="18" class="st4" width="4" height="76"/>
		<rect x="52" y="82" class="st22" width="4" height="4"/>
		<rect x="48" y="26" class="st21" width="4" height="4"/>
		<rect x="52" y="26" class="st22" width="4" height="4"/>
		<rect x="84" y="62" class="st19" width="8" height="4"/>
		<rect x="88" y="70" class="st23" width="4" height="4"/>
		<rect x="60" y="70" class="st15" width="12" height="8"/>
		<rect x="60" y="82" class="st24" width="12" height="4"/>
		<rect x="60" y="86" class="st25" width="12" height="4"/>
		<rect x="80" y="82" class="st24" width="12" height="4"/>
		<rect x="80" y="86" class="st25" width="12" height="4"/>
		<rect x="60" y="70" class="st26" width="4" height="8"/>
		<rect x="72" y="62" class="st19" width="8" height="4"/>
		<rect x="60" y="50" class="st11" width="32" height="4"/>
		<rect x="60" y="54" class="st27" width="32" height="4"/>
		<polygon class="st28" points="40,90 36,90 36,86 32,86 32,82 36,82 36,78 40,78 40,82 44,82 44,86 40,86 		"/>
		<rect x="36" y="82" class="st19" width="4" height="4"/>
	</g>
	<polygon class="st29" points="96,94 56,94 56,18 72,18 72,22 68,22 68,26 64,26 64,30 60,30 60,78 68,78 68,82 72,82 72,86 76,86 
		76,90 96,90 	"/>
	<polygon class="st0" points="92,30 76,30 76,26 96,26 96,66 92,66 	"/>
</g>
</svg>
